HIERARCHY
ROOT Hips
{
	OFFSET 0.000000 0.000000 0.000000 
	CHANNELS 6 Xposition Yposition Zposition Yrotation Zrotation Xrotation 
	JOINT Lumbar
	{
		OFFSET 0.000000 0.000000 0.000000 
		CHANNELS 3 Zrotation Xrotation Yrotation
		JOINT Neck
		{
			OFFSET 0.000000 0.445665 0.000000 
			CHANNELS 3 Zrotation Xrotation Yrotation
			End Site
			{
				OFFSET 0.000000 0.227535 0.000000 
			}
		}
		JOINT RightShoulder
		{
			OFFSET 0.019635 0.377685 0.194865 
			CHANNELS 3 Zrotation Xrotation Yrotation
			JOINT RightElbow
			{
				OFFSET 0.000000 -0.243375 0.000000 
				CHANNELS 2 Zrotation Yrotation
				JOINT RightWrist
				{
					OFFSET 0.000000 -0.264825 0.000000 
					CHANNELS 2 Zrotation Xrotation
					End Site
					{
						OFFSET 0.006600 -0.176220 0.000990 
					}
				}
			}
		}
		JOINT LeftShoulder
		{
			OFFSET 0.019635 0.377685 -0.194865 
			CHANNELS 3 Zrotation Xrotation Yrotation
			JOINT LeftElbow
			{
				OFFSET 0.000000 -0.243375 0.000000 
				CHANNELS 2 Zrotation Yrotation
				JOINT LeftWrist
				{
					OFFSET 0.000000 -0.264825 0.000000 
					CHANNELS 2 Zrotation Xrotation
					End Site
					{
						OFFSET 0.006600 -0.176220 -0.000990 
					}
				}
			}
		}
	}
	JOINT RightHip
	{
		OFFSET 0.052140 -0.069960 0.075570 
		CHANNELS 3 Zrotation Xrotation Yrotation
		JOINT RightKnee
		{
			OFFSET 0.000000 -0.402270 0.000000 
			CHANNELS 1 Zrotation
			JOINT RightAnkle
			{
				OFFSET 0.000000 -0.404085 0.000000 
				CHANNELS 3 Zrotation Xrotation Yrotation
				End Site
				{
					OFFSET 0.204105 -0.089430 0.008415 
				}
			}
		}
	}
	JOINT LeftHip
	{
		OFFSET 0.052140 -0.069960 -0.075570 
		CHANNELS 3 Zrotation Xrotation Yrotation
		JOINT LeftKnee
		{
			OFFSET 0.000000 -0.402270 0.000000 
			CHANNELS 1 Zrotation
			JOINT LeftAnkle
			{
				OFFSET 0.000000 -0.404085 0.000000 
				CHANNELS 3 Zrotation Xrotation Yrotation
				End Site
				{
					OFFSET 0.204105 -0.089430 -0.008415 
				}
			}
		}
	}
}
MOTION
Frames: 33
Frame Time: 0.02
0.00079 0.00011 0.00012 178.05805 -46.15935 -1.15494 56.49309 1.35956 -0.25347 -11.28643 -1.46079 -0.65741 169.88209 -69.09795 -28.06123 19.65909 76.75216 0.50431 -5.45216 12.52997 115.90613 -218.41186 5.32855 -143.03355 51.90056 3.62671 49.07613 -1.55794 0.10031 -18.98104 -8.31503 -5.12644 -3.44222 53.0399 6.57078 -2.9113 -23.97993 -9.24219 5.09517 3.48214
0.00082 8e-05 0.00034 178.0523 -46.16293 -1.15219 56.53418 1.35477 -0.19398 -11.27896 -1.43328 -0.65748 169.88206 -69.24808 -28.10168 19.71331 76.64012 0.49776 -5.4771 12.39586 114.84207 -187.49617 5.32857 -133.62016 44.54309 3.00611 49.08071 -1.64053 -0.30556 -18.98023 -8.27513 -5.08464 -3.41692 53.04679 6.61765 -2.61915 -23.98331 -9.21028 5.07054 3.46592
0.00085 5e-05 0.00056 178.04662 -46.16644 -1.14944 56.57514 1.34997 -0.13465 -11.27154 -1.40585 -0.65755 169.88204 -69.39786 -28.14191 19.7674 76.52844 0.49118 -5.50196 12.26229 113.7812 -156.67724 5.3286 -124.23652 37.20866 2.38742 49.08523 -1.72293 -0.71051 -18.97943 -8.23534 -5.04295 -3.39169 53.05362 6.66447 -2.32741 -23.98668 -9.17842 5.04593 3.44971
0.00089 1e-05 0.00078 178.04089 -46.16999 -1.14669 56.6161 1.34519 -0.07533 -11.2641 -1.37842 -0.65762 169.88201 -69.54754 -28.18221 19.82146 76.41674 0.48464 -5.52682 12.12851 112.72038 -125.85558 5.32862 -114.85182 29.87356 1.76871 49.08979 -1.80528 -1.1152 -18.97862 -8.19556 -5.00128 -3.36648 53.06049 6.71121 -2.03609 -23.99005 -9.1466 5.02137 3.43353
0.00092 -2e-05 0.00099 178.03508 -46.17363 -1.14395 56.65718 1.34041 -0.01586 -11.25661 -1.35092 -0.65769 169.88198 -69.69754 -28.22278 19.87561 76.3047 0.47815 -5.55174 11.99439 111.65646 -94.94056 5.32865 -105.43826 22.51623 1.14818 49.09445 -1.88777 -1.52065 -18.9778 -8.15569 -4.95952 -3.3412 53.06744 6.758 -1.7445 -23.99342 -9.11476 4.9968 3.41735
0.00095 -5e-05 0.00121 178.02968 -46.17686 -1.14118 56.69788 1.33557 0.04315 -11.24934 -1.32363 -0.65775 169.88196 -69.84681 -28.26233 19.92957 76.19378 0.47138 -5.57649 11.86217 110.60208 -64.3276 5.32868 -96.11873 15.23092 0.53345 49.09865 -1.96999 -1.92453 -18.97704 -8.11607 -4.91799 -3.31606 53.07403 6.80488 -1.45245 -23.99681 -9.08286 4.97212 3.4011
0.00098 -8e-05 0.00143 178.02346 -46.18094 -1.13847 56.73932 1.33087 0.10304 -11.24162 -1.29595 -0.65783 169.88193 -69.99738 -28.30383 19.9839 76.08072 0.46516 -5.60155 11.72555 109.52958 -33.13193 5.32868 -86.61771 7.80661 -0.09248 49.10377 -2.05267 -2.33116 -18.97616 -8.07599 -4.87604 -3.29068 53.08134 6.8515 -1.16174 -24.00015 -9.05111 4.9477 3.38501
0.00101 -0.00011 0.00165 178.018 -46.18419 -1.13571 56.78004 1.32604 0.16211 -11.23437 -1.26863 -0.65789 169.88188 -70.1468 -28.34361 20.03779 75.96964 0.45849 -5.62631 11.5943 108.47398 -2.48938 5.32876 -77.2887 0.51432 -0.70768 49.10803 -2.13491 -2.73518 -18.9754 -8.03633 -4.83447 -3.26552 53.08797 6.89839 -0.86964 -24.00354 -9.01921 4.92302 3.36876
0.00105 -0.00015 0.00187 178.01345 -46.18657 -1.13288 56.82004 1.32107 0.22023 -11.22745 -1.24173 -0.65795 169.88191 -70.2947 -28.38096 20.09158 75.8609 0.45105 -5.65078 11.46438 107.4378 27.55226 5.32871 -68.14769 -6.63482 -1.31165 49.11128 -2.21673 -3.13655 -18.97475 -7.99715 -4.79335 -3.24062 53.09384 6.94552 -0.57622 -24.00698 -8.98717 4.89807 3.35234
0.00107 -0.00018 0.00208 178.0036 -46.19438 -1.13042 56.86468 1.31693 0.28396 -11.21792 -1.21234 -0.65806 169.88181 -70.45098 -28.43132 20.14725 75.73845 0.44736 -5.67718 11.31108 106.28613 61.27827 5.32875 -57.85785 -14.66261 -1.98589 49.12047 -2.30131 -3.55481 -18.97337 -7.95512 -4.7496 -3.2142 53.10428 6.99099 -0.29153 -24.01008 -8.95606 4.87484 3.33699
0.00112 -0.00021 0.0023 178.00495 -46.19049 -1.12718 56.8992 1.31101 0.33577 -11.21432 -1.18826 -0.65806 169.88179 -70.58979 -28.45487 20.19812 75.6451 0.43618 -5.69934 11.21712 105.38059 87.08381 5.32903 -50.03533 -20.80094 -2.50825 49.11705 -2.37986 -3.93631 -18.97358 -7.91915 -4.71144 -3.19102 53.10494 7.04015 0.01225 -24.01393 -8.92293 4.84787 3.31931
0.00118 -0.00022 0.00254 178.03717 -46.1563 -1.12172 56.90836 1.30029 0.35532 -11.22383 -1.17827 -0.65776 169.88208 -70.67971 -28.39943 20.24193 75.63146 0.40138 -5.7109 11.24648 105.12605 92.2288 5.32831 -48.66995 -22.01225 -2.63938 49.07944 -2.44341 -4.22506 -18.97771 -7.89967 -4.68864 -3.17652 53.07974 7.09793 0.36248 -24.01977 -8.88455 4.81136 3.29581
0.00126 -0.00022 0.00277 178.08057 -46.11011 -1.11548 56.90686 1.28773 0.36282 -11.24 -1.17366 -0.65737 169.88137 -70.75303 -28.31842 20.27929 75.64736 0.36006 -5.71781 11.37091 105.1158 89.27313 5.32942 -49.82533 -21.28861 -2.61325 49.02924 -2.50056 -4.47515 -18.98354 -7.88633 -4.6715 -3.16534 53.04465 7.15954 0.73225 -24.0264 -8.84413 4.77101 3.26992
0.00134 -0.00023 0.00301 178.11881 -46.06819 -1.10964 56.90875 1.27597 0.37556 -11.25505 -1.16691 -0.65703 169.88244 -70.83357 -28.25217 20.31625 75.64949 0.32317 -5.72646 11.44169 105.01909 89.25747 5.32912 -50.05071 -21.2692 -2.64238 48.98437 -2.55967 -4.73798 -18.98886 -7.87021 -4.65172 -3.15275 53.01325 7.2206 1.09791 -24.03272 -8.80438 4.73184 3.24469
0.00138 -0.00023 0.00325 178.15754 -46.031 -1.10362 56.91704 1.26444 0.38927 -11.26161 -1.15897 -0.65662 169.88231 -70.91224 -28.17115 20.36933 75.65199 0.27827 -5.73757 11.44094 104.84954 92.14327 5.32596 -49.43208 -21.94363 -2.7396 48.94052 -2.62295 -5.02217 -18.99299 -7.85391 -4.63207 -3.13966 52.98467 7.27733 1.44655 -24.0388 -8.76549 4.69477 3.22106
0.00152 -0.00024 0.00348 178.19774 -45.9814 -1.09779 56.90912 1.2519 0.39811 -11.28798 -1.15468 -0.65636 169.87893 -70.99491 -28.11669 20.38473 75.66215 0.25077 -5.74136 11.75696 104.85156 87.3316 5.33586 -51.09241 -20.76636 -2.65774 48.8923 -2.67584 -5.25139 -19.0001 -7.83961 -4.61371 -3.12851 52.94858 7.34313 1.83139 -24.0456 -8.72462 4.65277 3.19381
0.00192 -0.00024 0.00367 178.24044 -45.89822 -1.09269 56.86153 1.23791 0.39654 -11.36275 -1.16001 -0.65641 169.88884 -71.06238 -28.14312 20.31715 75.6755 0.25215 -5.73625 11.63318 105.6071 60.95156 5.32069 -59.09129 -14.5018 -2.12244 48.82904 -2.70342 -5.35034 -19.01425 -7.82775 -4.59566 -3.12091 52.88839 7.44045 2.34506 -24.05385 -8.67613 4.59522 3.15467
0.00243 -0.00025 0.00385 178.28401 -45.80343 -1.08783 56.79721 1.22278 0.39051 -11.45815 -1.16865 -0.65665 169.87401 -71.14295 -28.20868 20.20661 75.69861 0.27414 -5.72268 12.03201 106.47365 27.50683 5.32741 -69.1824 -6.51978 -1.41343 48.76314 -2.72052 -5.39359 -19.03154 -7.81793 -4.579 -3.11529 52.82224 7.54546 2.88851 -24.06289 -8.62621 4.53337 3.11243
0.00292 -0.00025 0.00404 178.3264 -45.71539 -1.08288 56.7393 1.20758 0.38643 -11.54708 -1.17528 -0.6569 169.87815 -71.23384 -28.24054 20.10504 75.72295 0.30157 -5.70549 13.08154 107.05362 -1.1588 5.36713 -77.86738 0.37545 -0.7804 48.70216 -2.74113 -5.45375 -19.04782 -7.80826 -4.56299 -3.10946 52.7624 7.64201 3.39583 -24.07176 -8.5787 4.47543 3.07327
0.0033 -0.00026 0.00422 178.37246 -45.62054 -1.0778 56.68731 1.19482 0.38211 -11.62374 -1.1844 -0.6567 169.92106 -71.24388 -28.29045 20.0545 75.72006 0.27038 -5.71698 10.52415 108.59692 -36.61033 5.23597 -88.52051 8.61096 -0.14817 48.62424 -2.76644 -5.54582 -19.06213 -7.79444 -4.542 -3.101 52.68629 7.75934 3.99793 -24.07975 -8.52375 4.40919 3.02707
0.00393 -0.00026 0.00441 178.41096 -45.5375 -1.07305 56.61761 1.17671 0.37755 -11.73104 -1.18884 -0.6575 169.7878 -71.44017 -28.3729 19.87917 75.78124 0.36113 -5.6701 15.4272 108.20973 -59.64929 5.4529 -95.5911 14.46303 0.51714 48.58213 -2.78004 -5.56151 -19.0816 -7.78942 -4.53135 -3.09826 52.6437 7.83555 4.41106 -24.08989 -8.48391 4.35917 2.9947
0.00517 -0.00025 0.00462 178.4282 -45.48791 -1.06913 56.51593 1.14443 0.37203 -11.91566 -1.1812 -0.66082 169.99591 -72.0212 -27.99853 19.44494 75.98051 0.83117 -5.43099 42.31893 102.00994 -45.33985 6.73856 -91.7789 13.07368 1.29857 48.6313 -2.75982 -5.35574 -19.11184 -7.81043 -4.55133 -3.11245 52.68762 7.79301 4.28061 -24.10455 -8.4867 4.35569 3.00243
0.00667 -0.00024 0.00483 178.43784 -45.45103 -1.06547 56.39433 1.10677 0.3668 -12.1309 -1.16839 -0.66516 169.91299 -72.81125 -27.74226 18.8751 76.25747 1.41684 -5.13636 76.42371 93.94738 -18.49404 8.35358 -84.35825 9.25465 2.09488 48.71835 -2.72899 -5.07956 -19.14777 -7.83982 -4.58119 -3.13201 52.7671 7.70939 3.96149 -24.12163 -8.50468 4.36854 3.024
0.0081 -0.00024 0.00504 178.45092 -45.40969 -1.06177 56.27392 1.0714 0.36231 -12.3334 -1.15686 -0.66916 169.37506 -73.59068 -27.80174 18.31491 76.51386 1.91523 -4.89302 106.22343 87.03434 1.75769 9.74265 -78.89996 6.70397 2.83823 48.79331 -2.70568 -4.85188 -19.18273 -7.86387 -4.60489 -3.14803 52.83511 7.64681 3.73824 -24.1383 -8.51532 4.37347 3.03851
0.00932 -0.00021 0.00525 178.46377 -45.36241 -1.05795 56.1875 1.03668 0.3537 -12.53119 -1.15004 -0.67264 171.15613 -74.02117 -26.35933 17.96242 76.68008 2.55078 -4.55275 140.35068 78.84543 25.49916 11.45084 -72.18534 3.54909 3.77885 48.84589 -2.6705 -4.55329 -19.21057 -7.89435 -4.63568 -3.16875 52.8825 7.57466 3.47356 -24.15182 -8.52766 4.38039 3.05616
0.01106 -0.00024 0.00546 178.47568 -45.33066 -1.05416 56.02404 0.99932 0.35412 -12.74638 -1.13203 -0.67743 168.23832 -75.21937 -28.00192 17.15852 77.08793 2.94063 -4.38451 167.20403 72.87113 45.09848 12.57686 -67.16473 1.01827 4.31476 48.95491 -2.65778 -4.38551 -19.25507 -7.91351 -4.65405 -3.18098 52.98212 7.51235 3.24965 -24.17279 -8.54018 4.38703 3.0706
0.01407 -0.0004 0.00567 178.48368 -45.33876 -1.05277 55.66668 0.9562 0.37674 -12.99706 -1.08551 -0.68571 150.66744 -78.56479 -38.74683 15.03037 77.80677 2.49765 -4.85546 171.90788 73.46288 49.74553 11.97513 -68.0297 1.08732 3.68717 49.20397 -2.70873 -4.60349 -19.33993 -7.89851 -4.63562 -3.16812 53.21081 7.48958 3.18781 -24.21094 -8.54853 4.3894 3.07283
0.01761 -0.00062 0.00589 178.49168 -45.36201 -1.05094 55.22936 0.91057 0.40892 -13.265 -1.02771 -0.69526 128.6819 -82.6639 -52.48042 12.47308 78.80557 1.81553 -5.47817 169.09357 76.34982 49.90377 10.7837 -70.66016 1.80371 2.65971 49.50979 -2.78281 -4.95403 -19.4423 -7.87205 -4.60443 -3.14662 53.49205 7.4778 3.17328 -24.25707 -8.55668 4.39077 3.07134
0.02096 -0.00082 0.0061 178.50165 -45.37845 -1.04775 54.82031 0.86598 0.43856 -13.52835 -0.97433 -0.70415 109.89331 -86.36264 -64.44049 10.18582 79.92706 1.33986 -5.9266 169.91727 78.18641 52.4565 9.88778 -72.24873 2.03365 1.84098 49.79387 -2.84708 -5.23989 -19.53925 -7.85132 -4.5791 -3.12926 53.75353 7.45923 3.13407 -24.30134 -8.56556 4.39238 3.07164
0.0241 -0.00098 0.00631 178.50268 -45.39538 -1.05118 54.44699 0.8217 0.46077 -13.77929 -0.92369 -0.71342 86.16034 -90.30065 -78.14717 7.57904 80.09244 0.50197 -6.79799 170.067 79.98148 53.97622 8.88611 -74.69286 3.00405 0.90506 50.062 -2.9083 -5.5437 -19.62506 -7.82842 -4.55366 -3.1111 53.99893 7.4462 3.09949 -24.33805 -8.57236 4.39575 3.07219
0.02781 -0.00123 0.00654 178.52288 -45.41426 -1.0407 53.97753 0.77615 0.50048 -14.05948 -0.8648 -0.72217 71.56496 -93.93197 -88.93774 5.53525 82.19397 0.30193 -6.84989 169.73049 82.44157 56.38028 7.96173 -75.86021 2.60181 0.12284 50.37654 -2.98112 -5.84037 -19.73895 -7.80754 -4.52552 -3.09259 54.28975 7.42554 3.07176 -24.39262 -8.58312 4.39462 3.07091
0.03294 -0.00168 0.00679 178.59232 -45.43899 -0.99188 53.28763 0.72869 0.58812 -14.41887 -0.78532 -0.72927 84.29111 -96.39744 -90.82391 5.17291 90.63745 2.42756 -4.3869 169.94152 86.10679 62.60863 7.38156 -72.73843 -1.59835 -0.17462 50.80377 -3.0841 -6.10559 -19.91945 -7.79205 -4.49078 -3.07405 54.69416 7.37435 3.0272 -24.49256 -8.60587 4.38474 3.06752
0.03863 -0.00221 0.00706 178.68184 -45.46445 -0.92908 52.49899 0.67997 0.69253 -14.80672 -0.69803 -0.73579 106.1817 -98.55122 -89.69333 5.38875 100.84085 5.11323 -1.13243 169.87592 90.38367 69.76702 6.90031 -68.34435 -7.21106 -0.29406 51.27602 -3.1976 -6.35671 -20.1289 -7.7794 -4.45398 -3.05557 55.14234 7.31632 2.99259 -24.61063 -8.63238 4.36971 3.062
